<svg width="93" height="13" viewBox="0 0 93 13" fill="none" xmlns="http://www.w3.org/2000/svg">
<path d="M9.6875 8.39062C9.54688 9.59375 9.10156 10.5234 8.35156 11.1797C7.60677 11.8307 6.61458 12.1562 5.375 12.1562C4.03125 12.1562 2.95312 11.6745 2.14062 10.7109C1.33333 9.7474 0.929688 8.45833 0.929688 6.84375V5.75C0.929688 4.69271 1.11719 3.76302 1.49219 2.96094C1.8724 2.15885 2.40885 1.54427 3.10156 1.11719C3.79427 0.684896 4.59635 0.46875 5.50781 0.46875C6.71615 0.46875 7.6849 0.807292 8.41406 1.48438C9.14323 2.15625 9.56771 3.08854 9.6875 4.28125H8.17969C8.04948 3.375 7.76562 2.71875 7.32812 2.3125C6.89583 1.90625 6.28906 1.70312 5.50781 1.70312C4.54948 1.70312 3.79688 2.05729 3.25 2.76562C2.70833 3.47396 2.4375 4.48177 2.4375 5.78906V6.89062C2.4375 8.125 2.69531 9.10677 3.21094 9.83594C3.72656 10.5651 4.44792 10.9297 5.375 10.9297C6.20833 10.9297 6.84635 10.7422 7.28906 10.3672C7.73698 9.98698 8.03385 9.32812 8.17969 8.39062H9.6875ZM20.4922 6.67969C20.4922 7.79427 20.3047 8.76823 19.9297 9.60156C19.5547 10.4297 19.0234 11.0625 18.3359 11.5C17.6484 11.9375 16.8464 12.1562 15.9297 12.1562C15.0339 12.1562 14.2396 11.9375 13.5469 11.5C12.8542 11.0573 12.3151 10.4297 11.9297 9.61719C11.5495 8.79948 11.3542 7.85417 11.3438 6.78125V5.96094C11.3438 4.86719 11.5339 3.90104 11.9141 3.0625C12.2943 2.22396 12.8307 1.58333 13.5234 1.14062C14.2214 0.692708 15.0182 0.46875 15.9141 0.46875C16.8255 0.46875 17.6276 0.690104 18.3203 1.13281C19.0182 1.57031 19.5547 2.20833 19.9297 3.04688C20.3047 3.88021 20.4922 4.85156 20.4922 5.96094V6.67969ZM19 5.94531C19 4.59635 18.7292 3.5625 18.1875 2.84375C17.6458 2.11979 16.888 1.75781 15.9141 1.75781C14.9661 1.75781 14.2188 2.11979 13.6719 2.84375C13.1302 3.5625 12.8516 4.5625 12.8359 5.84375V6.67969C12.8359 7.98698 13.1094 9.01562 13.6562 9.76562C14.2083 10.5104 14.9661 10.8828 15.9297 10.8828C16.8984 10.8828 17.6484 10.5312 18.1797 9.82812C18.7109 9.11979 18.9844 8.10677 19 6.78906V5.94531ZM24.25 10.7734H29.6406V12H22.7422V0.625H24.25V10.7734ZM32.8594 10.7734H38.25V12H31.3516V0.625H32.8594V10.7734ZM46.3906 6.74219H41.4609V10.7734H47.1875V12H39.9609V0.625H47.1094V1.85938H41.4609V5.51562H46.3906V6.74219ZM57.4219 8.39062C57.2812 9.59375 56.8359 10.5234 56.0859 11.1797C55.3411 11.8307 54.349 12.1562 53.1094 12.1562C51.7656 12.1562 50.6875 11.6745 49.875 10.7109C49.0677 9.7474 48.6641 8.45833 48.6641 6.84375V5.75C48.6641 4.69271 48.8516 3.76302 49.2266 2.96094C49.6068 2.15885 50.1432 1.54427 50.8359 1.11719C51.5286 0.684896 52.3307 0.46875 53.2422 0.46875C54.4505 0.46875 55.4193 0.807292 56.1484 1.48438C56.8776 2.15625 57.3021 3.08854 57.4219 4.28125H55.9141C55.7839 3.375 55.5 2.71875 55.0625 2.3125C54.6302 1.90625 54.0234 1.70312 53.2422 1.70312C52.2839 1.70312 51.5312 2.05729 50.9844 2.76562C50.4427 3.47396 50.1719 4.48177 50.1719 5.78906V6.89062C50.1719 8.125 50.4297 9.10677 50.9453 9.83594C51.4609 10.5651 52.1823 10.9297 53.1094 10.9297C53.9427 10.9297 54.5807 10.7422 55.0234 10.3672C55.4714 9.98698 55.7682 9.32812 55.9141 8.39062H57.4219ZM67.1016 1.85938H63.4453V12H61.9531V1.85938H58.3047V0.625H67.1016V1.85938ZM70.3984 12H68.8984V0.625H70.3984V12ZM81.8984 6.67969C81.8984 7.79427 81.7109 8.76823 81.3359 9.60156C80.9609 10.4297 80.4297 11.0625 79.7422 11.5C79.0547 11.9375 78.2526 12.1562 77.3359 12.1562C76.4401 12.1562 75.6458 11.9375 74.9531 11.5C74.2604 11.0573 73.7214 10.4297 73.3359 9.61719C72.9557 8.79948 72.7604 7.85417 72.75 6.78125V5.96094C72.75 4.86719 72.9401 3.90104 73.3203 3.0625C73.7005 2.22396 74.237 1.58333 74.9297 1.14062C75.6276 0.692708 76.4245 0.46875 77.3203 0.46875C78.2318 0.46875 79.0339 0.690104 79.7266 1.13281C80.4245 1.57031 80.9609 2.20833 81.3359 3.04688C81.7109 3.88021 81.8984 4.85156 81.8984 5.96094V6.67969ZM80.4062 5.94531C80.4062 4.59635 80.1354 3.5625 79.5938 2.84375C79.0521 2.11979 78.2943 1.75781 77.3203 1.75781C76.3724 1.75781 75.625 2.11979 75.0781 2.84375C74.5365 3.5625 74.2578 4.5625 74.2422 5.84375V6.67969C74.2422 7.98698 74.5156 9.01562 75.0625 9.76562C75.6146 10.5104 76.3724 10.8828 77.3359 10.8828C78.3047 10.8828 79.0547 10.5312 79.5859 9.82812C80.1172 9.11979 80.3906 8.10677 80.4062 6.78906V5.94531ZM92.8906 12H91.3828L85.6562 3.23438V12H84.1484V0.625H85.6562L91.3984 9.42969V0.625H92.8906V12Z" fill="black"/>
</svg>
