<svg width="56" height="16" viewBox="0 0 56 16" fill="none" xmlns="http://www.w3.org/2000/svg">
<path d="M0.9 14.9615C0.753333 14.9615 0.633333 14.9149 0.54 14.8215C0.446667 14.7282 0.4 14.6082 0.4 14.4615V1.46152C0.4 1.31485 0.446667 1.19485 0.54 1.10152C0.646667 1.00818 0.766667 0.961516 0.9 0.961516H3.48C3.62667 0.961516 3.74667 1.00818 3.84 1.10152C3.94667 1.19485 4 1.31485 4 1.46152V6.28152H8.92V1.46152C8.92 1.31485 8.96667 1.19485 9.06 1.10152C9.15333 1.00818 9.27333 0.961516 9.42 0.961516H12C12.1467 0.961516 12.2667 1.00818 12.36 1.10152C12.4533 1.19485 12.5 1.31485 12.5 1.46152V14.4615C12.5 14.6082 12.4533 14.7282 12.36 14.8215C12.2667 14.9149 12.1467 14.9615 12 14.9615H9.42C9.27333 14.9615 9.15333 14.9149 9.06 14.8215C8.96667 14.7282 8.92 14.6082 8.92 14.4615V9.48152H4V14.4615C4 14.6082 3.94667 14.7282 3.84 14.8215C3.74667 14.9149 3.62667 14.9615 3.48 14.9615H0.9ZM20.0023 15.1615C18.349 15.1615 17.0757 14.7682 16.1823 13.9815C15.289 13.1949 14.8023 12.0882 14.7223 10.6615C14.709 10.4882 14.7023 10.1882 14.7023 9.76152C14.7023 9.33485 14.709 9.03485 14.7223 8.86152C14.8023 7.44818 15.3023 6.34818 16.2223 5.56152C17.1423 4.76152 18.4023 4.36152 20.0023 4.36152C21.6157 4.36152 22.8823 4.76152 23.8023 5.56152C24.7223 6.34818 25.2223 7.44818 25.3023 8.86152C25.3157 9.03485 25.3223 9.33485 25.3223 9.76152C25.3223 10.1882 25.3157 10.4882 25.3023 10.6615C25.2223 12.0882 24.7357 13.1949 23.8423 13.9815C22.949 14.7682 21.669 15.1615 20.0023 15.1615ZM20.0023 12.7215C20.589 12.7215 21.0223 12.5482 21.3023 12.2015C21.5823 11.8415 21.7423 11.2949 21.7823 10.5615C21.7957 10.4282 21.8023 10.1615 21.8023 9.76152C21.8023 9.36152 21.7957 9.09485 21.7823 8.96152C21.7423 8.24152 21.5757 7.70152 21.2823 7.34152C21.0023 6.98152 20.5757 6.80152 20.0023 6.80152C18.8957 6.80152 18.309 7.52152 18.2423 8.96152L18.2223 9.76152L18.2423 10.5615C18.269 11.2949 18.4223 11.8415 18.7023 12.2015C18.9957 12.5482 19.429 12.7215 20.0023 12.7215ZM27.8089 14.9615C27.6622 14.9615 27.5422 14.9149 27.4489 14.8215C27.3556 14.7282 27.3089 14.6082 27.3089 14.4615V5.06152C27.3089 4.91485 27.3556 4.79485 27.4489 4.70152C27.5422 4.60818 27.6622 4.56152 27.8089 4.56152H29.9889C30.1356 4.56152 30.2556 4.60818 30.3489 4.70152C30.4422 4.79485 30.4889 4.91485 30.4889 5.06152V5.74152C30.7956 5.34152 31.2022 5.01485 31.7089 4.76152C32.2289 4.49485 32.8089 4.36152 33.4489 4.36152C34.9156 4.36152 35.9289 4.93485 36.4889 6.08152C36.8089 5.57485 37.2556 5.16152 37.8289 4.84152C38.4022 4.52152 39.0156 4.36152 39.6689 4.36152C40.7622 4.36152 41.6489 4.73485 42.3289 5.48152C43.0222 6.21485 43.3689 7.31485 43.3689 8.78152V14.4615C43.3689 14.5949 43.3222 14.7149 43.2289 14.8215C43.1356 14.9149 43.0156 14.9615 42.8689 14.9615H40.5489C40.4022 14.9615 40.2756 14.9149 40.1689 14.8215C40.0756 14.7282 40.0289 14.6082 40.0289 14.4615V8.92152C40.0289 8.25485 39.8889 7.77485 39.6089 7.48152C39.3422 7.18818 38.9756 7.04152 38.5089 7.04152C38.0822 7.04152 37.7289 7.19485 37.4489 7.50152C37.1689 7.79485 37.0289 8.26818 37.0289 8.92152V14.4615C37.0289 14.5949 36.9822 14.7149 36.8889 14.8215C36.7956 14.9149 36.6756 14.9615 36.5289 14.9615H34.2089C34.0622 14.9615 33.9422 14.9149 33.8489 14.8215C33.7556 14.7282 33.7089 14.6082 33.7089 14.4615V8.92152C33.7089 8.26818 33.5622 7.79485 33.2689 7.50152C32.9889 7.19485 32.6289 7.04152 32.1889 7.04152C31.7622 7.04152 31.4022 7.19485 31.1089 7.50152C30.8289 7.79485 30.6889 8.26152 30.6889 8.90152V14.4615C30.6889 14.5949 30.6422 14.7149 30.5489 14.8215C30.4556 14.9149 30.3356 14.9615 30.1889 14.9615H27.8089ZM50.4292 15.1615C48.8292 15.1615 47.5692 14.7282 46.6492 13.8615C45.7292 12.9949 45.2492 11.7349 45.2092 10.0815V9.38152C45.2626 7.80818 45.7492 6.58152 46.6692 5.70152C47.6026 4.80818 48.8492 4.36152 50.4092 4.36152C51.5426 4.36152 52.4959 4.59485 53.2692 5.06152C54.0559 5.51485 54.6426 6.14152 55.0292 6.94152C55.4292 7.74152 55.6292 8.66152 55.6292 9.70152V10.1815C55.6292 10.3149 55.5826 10.4349 55.4892 10.5415C55.3959 10.6349 55.2759 10.6815 55.1292 10.6815H48.7292V10.8215C48.7559 11.4482 48.9092 11.9549 49.1892 12.3415C49.4692 12.7282 49.8759 12.9215 50.4092 12.9215C50.7426 12.9215 51.0159 12.8549 51.2292 12.7215C51.4426 12.5749 51.6359 12.4015 51.8092 12.2015C51.9292 12.0549 52.0226 11.9682 52.0892 11.9415C52.1692 11.9015 52.2892 11.8815 52.4492 11.8815H54.9292C55.0492 11.8815 55.1492 11.9215 55.2292 12.0015C55.3226 12.0682 55.3692 12.1615 55.3692 12.2815C55.3692 12.6282 55.1692 13.0282 54.7692 13.4815C54.3826 13.9349 53.8159 14.3282 53.0692 14.6615C52.3226 14.9949 51.4426 15.1615 50.4292 15.1615ZM52.1092 8.70152V8.66152C52.1092 8.00818 51.9559 7.49485 51.6492 7.12152C51.3559 6.73485 50.9426 6.54152 50.4092 6.54152C49.8892 6.54152 49.4759 6.73485 49.1692 7.12152C48.8759 7.49485 48.7292 8.00818 48.7292 8.66152V8.70152H52.1092Z" fill="#FF5151"/>
</svg>
