<svg width="195" height="23" viewBox="0 0 195 23" fill="none" xmlns="http://www.w3.org/2000/svg">
<path d="M14.3516 9.91406C14.3516 11.5859 14.0625 13.0547 13.4844 14.3203C12.9062 15.5781 12.0781 16.5469 11 17.2266C9.92969 17.8984 8.69531 18.2344 7.29688 18.2344C5.91406 18.2344 4.67969 17.8984 3.59375 17.2266C2.51562 16.5469 1.67969 15.582 1.08594 14.332C0.5 13.082 0.203125 11.6406 0.195312 10.0078V9.04688C0.195312 7.38281 0.488281 5.91406 1.07422 4.64062C1.66797 3.36719 2.5 2.39453 3.57031 1.72266C4.64844 1.04297 5.88281 0.703125 7.27344 0.703125C8.66406 0.703125 9.89453 1.03906 10.9648 1.71094C12.043 2.375 12.875 3.33594 13.4609 4.59375C14.0469 5.84375 14.3438 7.30078 14.3516 8.96484V9.91406ZM11.3867 9.02344C11.3867 7.13281 11.0273 5.68359 10.3086 4.67578C9.59766 3.66797 8.58594 3.16406 7.27344 3.16406C5.99219 3.16406 4.98828 3.66797 4.26172 4.67578C3.54297 5.67578 3.17578 7.09375 3.16016 8.92969V9.91406C3.16016 11.7891 3.52344 13.2383 4.25 14.2617C4.98438 15.2852 6 15.7969 7.29688 15.7969C8.60938 15.7969 9.61719 15.2969 10.3203 14.2969C11.0312 13.2969 11.3867 11.8359 11.3867 9.91406V9.02344ZM24.7109 16.7578C23.875 17.7422 22.6875 18.2344 21.1484 18.2344C19.7734 18.2344 18.7305 17.832 18.0195 17.0273C17.3164 16.2227 16.9648 15.0586 16.9648 13.5352V5.32031H19.8125V13.5C19.8125 15.1094 20.4805 15.9141 21.8164 15.9141C23.1992 15.9141 24.1328 15.418 24.6172 14.4258V5.32031H27.4648V18H24.7812L24.7109 16.7578ZM37.0039 7.92188C36.6289 7.85938 36.2422 7.82812 35.8438 7.82812C34.5391 7.82812 33.6602 8.32812 33.207 9.32812V18H30.3594V5.32031H33.0781L33.1484 6.73828C33.8359 5.63672 34.7891 5.08594 36.0078 5.08594C36.4141 5.08594 36.75 5.14062 37.0156 5.25L37.0039 7.92188ZM56.6797 3.32812H51.3594V18H48.418V3.32812H43.1445V0.9375H56.6797V3.32812ZM55.6836 11.543C55.6836 10.3008 55.9297 9.18359 56.4219 8.19141C56.9141 7.19141 57.6055 6.42578 58.4961 5.89453C59.3867 5.35547 60.4102 5.08594 61.5664 5.08594C63.2773 5.08594 64.6641 5.63672 65.7266 6.73828C66.7969 7.83984 67.375 9.30078 67.4609 11.1211L67.4727 11.7891C67.4727 13.0391 67.2305 14.1562 66.7461 15.1406C66.2695 16.125 65.582 16.8867 64.6836 17.4258C63.793 17.9648 62.7617 18.2344 61.5898 18.2344C59.8008 18.2344 58.3672 17.6406 57.2891 16.4531C56.2188 15.2578 55.6836 13.668 55.6836 11.6836V11.543ZM58.5312 11.7891C58.5312 13.0938 58.8008 14.1172 59.3398 14.8594C59.8789 15.5938 60.6289 15.9609 61.5898 15.9609C62.5508 15.9609 63.2969 15.5859 63.8281 14.8359C64.3672 14.0859 64.6367 12.9883 64.6367 11.543C64.6367 10.2617 64.3594 9.24609 63.8047 8.49609C63.2578 7.74609 62.5117 7.37109 61.5664 7.37109C60.6367 7.37109 59.8984 7.74219 59.3516 8.48438C58.8047 9.21875 58.5312 10.3203 58.5312 11.7891ZM80.9844 11.7891C80.9844 13.75 80.5391 15.3164 79.6484 16.4883C78.7578 17.6523 77.5625 18.2344 76.0625 18.2344C74.6719 18.2344 73.5586 17.7773 72.7227 16.8633V22.875H69.875V5.32031H72.5L72.6172 6.60938C73.4531 5.59375 74.5898 5.08594 76.0273 5.08594C77.5742 5.08594 78.7852 5.66406 79.6602 6.82031C80.543 7.96875 80.9844 9.56641 80.9844 11.6133V11.7891ZM78.1484 11.543C78.1484 10.2773 77.8945 9.27344 77.3867 8.53125C76.8867 7.78906 76.168 7.41797 75.2305 7.41797C74.0664 7.41797 73.2305 7.89844 72.7227 8.85938V14.4844C73.2383 15.4688 74.082 15.9609 75.2539 15.9609C76.1602 15.9609 76.8672 15.5977 77.375 14.8711C77.8906 14.1367 78.1484 13.0273 78.1484 11.543ZM102.676 12.4453C102.504 14.2656 101.832 15.6875 100.66 16.7109C99.4883 17.7266 97.9297 18.2344 95.9844 18.2344C94.625 18.2344 93.4258 17.9141 92.3867 17.2734C91.3555 16.625 90.5586 15.707 89.9961 14.5195C89.4336 13.332 89.1406 11.9531 89.1172 10.3828V8.78906C89.1172 7.17969 89.4023 5.76172 89.9727 4.53516C90.543 3.30859 91.3594 2.36328 92.4219 1.69922C93.4922 1.03516 94.7266 0.703125 96.125 0.703125C98.0078 0.703125 99.5234 1.21484 100.672 2.23828C101.82 3.26172 102.488 4.70703 102.676 6.57422H99.7227C99.582 5.34766 99.2227 4.46484 98.6445 3.92578C98.0742 3.37891 97.2344 3.10547 96.125 3.10547C94.8359 3.10547 93.8438 3.57812 93.1484 4.52344C92.4609 5.46094 92.1094 6.83984 92.0938 8.66016V10.1719C92.0938 12.0156 92.4219 13.4219 93.0781 14.3906C93.7422 15.3594 94.7109 15.8438 95.9844 15.8438C97.1484 15.8438 98.0234 15.582 98.6094 15.0586C99.1953 14.5352 99.5664 13.6641 99.7227 12.4453H102.676ZM104.527 11.543C104.527 10.3008 104.773 9.18359 105.266 8.19141C105.758 7.19141 106.449 6.42578 107.34 5.89453C108.23 5.35547 109.254 5.08594 110.41 5.08594C112.121 5.08594 113.508 5.63672 114.57 6.73828C115.641 7.83984 116.219 9.30078 116.305 11.1211L116.316 11.7891C116.316 13.0391 116.074 14.1562 115.59 15.1406C115.113 16.125 114.426 16.8867 113.527 17.4258C112.637 17.9648 111.605 18.2344 110.434 18.2344C108.645 18.2344 107.211 17.6406 106.133 16.4531C105.062 15.2578 104.527 13.668 104.527 11.6836V11.543ZM107.375 11.7891C107.375 13.0938 107.645 14.1172 108.184 14.8594C108.723 15.5938 109.473 15.9609 110.434 15.9609C111.395 15.9609 112.141 15.5859 112.672 14.8359C113.211 14.0859 113.48 12.9883 113.48 11.543C113.48 10.2617 113.203 9.24609 112.648 8.49609C112.102 7.74609 111.355 7.37109 110.41 7.37109C109.48 7.37109 108.742 7.74219 108.195 8.48438C107.648 9.21875 107.375 10.3203 107.375 11.7891ZM121.754 18H118.906V0H121.754V18ZM127.895 18H125.047V0H127.895V18ZM136.59 18.2344C134.785 18.2344 133.32 17.668 132.195 16.5352C131.078 15.3945 130.52 13.8789 130.52 11.9883V11.6367C130.52 10.3711 130.762 9.24219 131.246 8.25C131.738 7.25 132.426 6.47266 133.309 5.91797C134.191 5.36328 135.176 5.08594 136.262 5.08594C137.988 5.08594 139.32 5.63672 140.258 6.73828C141.203 7.83984 141.676 9.39844 141.676 11.4141V12.5625H133.391C133.477 13.6094 133.824 14.4375 134.434 15.0469C135.051 15.6562 135.824 15.9609 136.754 15.9609C138.059 15.9609 139.121 15.4336 139.941 14.3789L141.477 15.8438C140.969 16.6016 140.289 17.1914 139.438 17.6133C138.594 18.0273 137.645 18.2344 136.59 18.2344ZM136.25 7.37109C135.469 7.37109 134.836 7.64453 134.352 8.19141C133.875 8.73828 133.57 9.5 133.438 10.4766H138.863V10.2656C138.801 9.3125 138.547 8.59375 138.102 8.10938C137.656 7.61719 137.039 7.37109 136.25 7.37109ZM149.105 15.9609C149.816 15.9609 150.406 15.7539 150.875 15.3398C151.344 14.9258 151.594 14.4141 151.625 13.8047H154.309C154.277 14.5938 154.031 15.332 153.57 16.0195C153.109 16.6992 152.484 17.2383 151.695 17.6367C150.906 18.0352 150.055 18.2344 149.141 18.2344C147.367 18.2344 145.961 17.6602 144.922 16.5117C143.883 15.3633 143.363 13.7773 143.363 11.7539V11.4609C143.363 9.53125 143.879 7.98828 144.91 6.83203C145.941 5.66797 147.348 5.08594 149.129 5.08594C150.637 5.08594 151.863 5.52734 152.809 6.41016C153.762 7.28516 154.262 8.4375 154.309 9.86719H151.625C151.594 9.14062 151.344 8.54297 150.875 8.07422C150.414 7.60547 149.824 7.37109 149.105 7.37109C148.184 7.37109 147.473 7.70703 146.973 8.37891C146.473 9.04297 146.219 10.0547 146.211 11.4141V11.8711C146.211 13.2461 146.457 14.2734 146.949 14.9531C147.449 15.625 148.168 15.9609 149.105 15.9609ZM160.027 2.23828V5.32031H162.266V7.42969H160.027V14.5078C160.027 14.9922 160.121 15.3438 160.309 15.5625C160.504 15.7734 160.848 15.8789 161.34 15.8789C161.668 15.8789 162 15.8398 162.336 15.7617V17.9648C161.688 18.1445 161.062 18.2344 160.461 18.2344C158.273 18.2344 157.18 17.0273 157.18 14.6133V7.42969H155.094V5.32031H157.18V2.23828H160.027ZM167.48 18H164.633V5.32031H167.48V18ZM164.457 2.02734C164.457 1.58984 164.594 1.22656 164.867 0.9375C165.148 0.648437 165.547 0.503906 166.062 0.503906C166.578 0.503906 166.977 0.648437 167.258 0.9375C167.539 1.22656 167.68 1.58984 167.68 2.02734C167.68 2.45703 167.539 2.81641 167.258 3.10547C166.977 3.38672 166.578 3.52734 166.062 3.52734C165.547 3.52734 165.148 3.38672 164.867 3.10547C164.594 2.81641 164.457 2.45703 164.457 2.02734ZM170.059 11.543C170.059 10.3008 170.305 9.18359 170.797 8.19141C171.289 7.19141 171.98 6.42578 172.871 5.89453C173.762 5.35547 174.785 5.08594 175.941 5.08594C177.652 5.08594 179.039 5.63672 180.102 6.73828C181.172 7.83984 181.75 9.30078 181.836 11.1211L181.848 11.7891C181.848 13.0391 181.605 14.1562 181.121 15.1406C180.645 16.125 179.957 16.8867 179.059 17.4258C178.168 17.9648 177.137 18.2344 175.965 18.2344C174.176 18.2344 172.742 17.6406 171.664 16.4531C170.594 15.2578 170.059 13.668 170.059 11.6836V11.543ZM172.906 11.7891C172.906 13.0938 173.176 14.1172 173.715 14.8594C174.254 15.5938 175.004 15.9609 175.965 15.9609C176.926 15.9609 177.672 15.5859 178.203 14.8359C178.742 14.0859 179.012 12.9883 179.012 11.543C179.012 10.2617 178.734 9.24609 178.18 8.49609C177.633 7.74609 176.887 7.37109 175.941 7.37109C175.012 7.37109 174.273 7.74219 173.727 8.48438C173.18 9.21875 172.906 10.3203 172.906 11.7891ZM186.898 5.32031L186.98 6.78516C187.918 5.65234 189.148 5.08594 190.672 5.08594C193.312 5.08594 194.656 6.59766 194.703 9.62109V18H191.855V9.78516C191.855 8.98047 191.68 8.38672 191.328 8.00391C190.984 7.61328 190.418 7.41797 189.629 7.41797C188.48 7.41797 187.625 7.9375 187.062 8.97656V18H184.215V5.32031H186.898Z" fill="black"/>
</svg>
